<svg width="24" height="24" viewBox="0 0 24 24" fill="none" xmlns="http://www.w3.org/2000/svg">
<path d="M18.5 10H22V12H20V17.5C20 18.2 19.7583 18.7917 19.275 19.275C18.7917 19.7583 18.2 20 17.5 20C16.8 20 16.2083 19.7583 15.725 19.275C15.2417 18.7917 15 18.2 15 17.5C15 16.8 15.2417 16.2083 15.725 15.725C16.2083 15.2417 16.8 15 17.5 15C17.6333 15 17.7833 15.0125 17.95 15.0375C18.1167 15.0625 18.3 15.1167 18.5 15.2V10ZM3 20V17.2C3 16.6167 3.14583 16.0917 3.4375 15.625C3.72917 15.1583 4.11667 14.8 4.6 14.55C5.63333 14.0333 6.68333 13.6458 7.75 13.3875C8.81667 13.1292 9.9 13 11 13C11.7 13 12.3958 13.0542 13.0875 13.1625C13.7792 13.2708 14.475 13.4333 15.175 13.65C14.8417 13.85 14.5417 14.0917 14.275 14.375C14.0083 14.6583 13.775 14.9667 13.575 15.3C13.1417 15.2 12.7125 15.125 12.2875 15.075C11.8625 15.025 11.4333 15 11 15C10.05 15 9.11667 15.1167 8.2 15.35C7.28333 15.5833 6.38333 15.9167 5.5 16.35C5.35 16.4333 5.22917 16.55 5.1375 16.7C5.04583 16.85 5 17.0167 5 17.2V18H13.025C13.0583 18.3333 13.1375 18.6667 13.2625 19C13.3875 19.3333 13.5583 19.6667 13.775 20H3ZM11 12C9.9 12 8.95833 11.6083 8.175 10.825C7.39167 10.0417 7 9.1 7 8C7 6.9 7.39167 5.95833 8.175 5.175C8.95833 4.39167 9.9 4 11 4C12.1 4 13.0417 4.39167 13.825 5.175C14.6083 5.95833 15 6.9 15 8C15 9.1 14.6083 10.0417 13.825 10.825C13.0417 11.6083 12.1 12 11 12ZM11 10C11.55 10 12.0208 9.80417 12.4125 9.4125C12.8042 9.02083 13 8.55 13 8C13 7.45 12.8042 6.97917 12.4125 6.5875C12.0208 6.19583 11.55 6 11 6C10.45 6 9.97917 6.19583 9.5875 6.5875C9.19583 6.97917 9 7.45 9 8C9 8.55 9.19583 9.02083 9.5875 9.4125C9.97917 9.80417 10.45 10 11 10Z" fill="white"/>
</svg>
