<svg width="24" height="24" viewBox="0 0 24 24" fill="none" xmlns="http://www.w3.org/2000/svg">
<path d="M4 22C3.45 22 2.97917 21.8042 2.5875 21.4125C2.19583 21.0208 2 20.55 2 20V8C2 7.58333 2.1125 7.20833 2.3375 6.875C2.5625 6.54167 2.86667 6.3 3.25 6.15L15.9 1L16.55 2.65L8.3 6H20C20.55 6 21.0208 6.19583 21.4125 6.5875C21.8042 6.97917 22 7.45 22 8V20C22 20.55 21.8042 21.0208 21.4125 21.4125C21.0208 21.8042 20.55 22 20 22H4ZM4 20H20V13H4V20ZM8 19C8.7 19 9.29167 18.7583 9.775 18.275C10.2583 17.7917 10.5 17.2 10.5 16.5C10.5 15.8 10.2583 15.2083 9.775 14.725C9.29167 14.2417 8.7 14 8 14C7.3 14 6.70833 14.2417 6.225 14.725C5.74167 15.2083 5.5 15.8 5.5 16.5C5.5 17.2 5.74167 17.7917 6.225 18.275C6.70833 18.7583 7.3 19 8 19ZM4 11H16V9H18V11H20V8H4V11Z" fill="white"/>
</svg>
