<svg width="24" height="24" viewBox="0 0 24 24" fill="none" xmlns="http://www.w3.org/2000/svg">
<path d="M17 17H15.441L5.741 6.327C5.64724 6.22395 5.53298 6.14164 5.40555 6.08532C5.27811 6.02901 5.14032 5.99995 5.001 6H2V8H4.559L8.649 12.5L4.559 17.001H2V19.001H5.001C5.14032 19.001 5.27811 18.972 5.40555 18.9157C5.53298 18.8594 5.64724 18.777 5.741 18.674L10 13.987L14.259 18.673C14.3528 18.776 14.467 18.8584 14.5945 18.9147C14.7219 18.971 14.8597 19 14.999 19H17V22L22 18L17 14V17Z" fill="white"/>
<path d="M15.441 8H17V11L22 7.062L17 3V6H14.999C14.8597 5.99995 14.7219 6.02901 14.5944 6.08532C14.467 6.14164 14.3528 6.22395 14.259 6.327L10.891 10.034L12.371 11.38L15.441 8Z" fill="white"/>
</svg>
