<svg width="24" height="24" viewBox="0 0 24 24" fill="none" xmlns="http://www.w3.org/2000/svg">
<path d="M14 20.725V18.675C15.5 18.2417 16.7083 17.4083 17.625 16.175C18.5417 14.9417 19 13.5417 19 11.975C19 10.4083 18.5417 9.00834 17.625 7.77501C16.7083 6.54167 15.5 5.70834 14 5.27501V3.22501C16.0667 3.69167 17.75 4.73751 19.05 6.36251C20.35 7.98751 21 9.85834 21 11.975C21 14.0917 20.35 15.9625 19.05 17.5875C17.75 19.2125 16.0667 20.2583 14 20.725ZM3 15V9.00001H7L12 4.00001V20L7 15H3ZM14 16V7.95001C14.7833 8.31667 15.3958 8.86667 15.8375 9.60001C16.2792 10.3333 16.5 11.1333 16.5 12C16.5 12.85 16.2792 13.6375 15.8375 14.3625C15.3958 15.0875 14.7833 15.6333 14 16ZM10 8.85001L7.85 11H5V13H7.85L10 15.15V8.85001Z" fill="white"/>
</svg>
